<svg xmlns="http://www.w3.org/2000/svg" width="1200" height="390" viewBox="0 0 1200 390" role="img" aria-labelledby="title desc">
  <title id="title">UNMC Java Server Stack architecture</title>
  <desc id="desc">Players connect through DNS and optional regional relays to a primary relay VPS, which forwards traffic through an SSH reverse tunnel to a Mac mini running Minecraft and the local web panel.</desc>
  <defs>
    <marker id="arrow" viewBox="0 0 10 10" refX="9" refY="5" markerWidth="7" markerHeight="7" orient="auto-start-reverse">
      <path d="M 0 0 L 10 5 L 0 10 z" fill="#58a6ff"/>
    </marker>
    <filter id="shadow" x="-20%" y="-30%" width="140%" height="170%">
      <feDropShadow dx="0" dy="14" stdDeviation="12" flood-color="#010409" flood-opacity=".35"/>
    </filter>
    <style>
      .bg { fill: #0d1117; }
      .card { fill: #161b22; stroke: #30363d; stroke-width: 1.4; filter: url(#shadow); }
      .primary { fill: #142238; stroke: #58a6ff; }
      .mac { fill: #102a25; stroke: #3fb950; }
      .optional { fill: #241a10; stroke: #f0883e; }
      .title { fill: #e6edf3; font: 700 18px -apple-system, BlinkMacSystemFont, "Segoe UI", sans-serif; }
      .label { fill: #e6edf3; font: 700 15px -apple-system, BlinkMacSystemFont, "Segoe UI", sans-serif; }
      .small { fill: #8b949e; font: 12px -apple-system, BlinkMacSystemFont, "Segoe UI", sans-serif; }
      .line { fill: none; stroke: #58a6ff; stroke-width: 2; marker-end: url(#arrow); }
      .muted-line { fill: none; stroke: #8b949e; stroke-width: 1.6; marker-end: url(#arrow); opacity: .82; }
      .tag { fill: #0d1117; stroke: #30363d; }
      .tag-text { fill: #c9d1d9; font: 11px -apple-system, BlinkMacSystemFont, "Segoe UI", sans-serif; }
    </style>
  </defs>

  <rect class="bg" width="1200" height="390" rx="18"/>
  <text class="title" x="42" y="48">UNMC Java Server Stack</text>
  <text class="small" x="42" y="72">Mac mini hosted Minecraft Java server, exposed through a public relay, managed with a local panel.</text>

  <rect class="card" x="48" y="132" width="150" height="78" rx="12"/>
  <text class="label" x="123" y="164" text-anchor="middle">Players</text>
  <text class="small" x="123" y="186" text-anchor="middle">Minecraft Java Client</text>

  <rect class="card" x="260" y="96" width="170" height="64" rx="12"/>
  <text class="label" x="345" y="122" text-anchor="middle">DNS</text>
  <text class="small" x="345" y="143" text-anchor="middle">play.example.com</text>

  <rect class="card optional" x="260" y="198" width="170" height="72" rx="12"/>
  <text class="label" x="345" y="226" text-anchor="middle">Optional Relay</text>
  <text class="small" x="345" y="248" text-anchor="middle">la.example.com</text>

  <rect class="card primary" x="505" y="132" width="190" height="92" rx="14"/>
  <text class="label" x="600" y="164" text-anchor="middle">Primary Relay VPS</text>
  <text class="small" x="600" y="186" text-anchor="middle">OpenSSH + public TCP</text>
  <rect class="tag" x="538" y="198" width="124" height="22" rx="11"/>
  <text class="tag-text" x="600" y="213" text-anchor="middle">0.0.0.0:25565</text>

  <rect class="card mac" x="780" y="132" width="190" height="92" rx="14"/>
  <text class="label" x="875" y="164" text-anchor="middle">Mac mini</text>
  <text class="small" x="875" y="186" text-anchor="middle">Minecraft + Panel</text>
  <text class="small" x="875" y="206" text-anchor="middle">Backups + tunnel client</text>

  <rect class="card" x="1032" y="90" width="130" height="64" rx="12"/>
  <text class="label" x="1097" y="116" text-anchor="middle">Minecraft JE</text>
  <text class="small" x="1097" y="137" text-anchor="middle">server/*.jar</text>

  <rect class="card" x="1032" y="190" width="130" height="64" rx="12"/>
  <text class="label" x="1097" y="216" text-anchor="middle">Web Panel</text>
  <text class="small" x="1097" y="237" text-anchor="middle">127.0.0.1:8765</text>

  <rect class="card" x="1032" y="290" width="130" height="64" rx="12"/>
  <text class="label" x="1097" y="316" text-anchor="middle">Backups</text>
  <text class="small" x="1097" y="337" text-anchor="middle">backups/world</text>

  <path class="line" d="M198 158 C226 148 232 132 260 128"/>
  <path class="muted-line" d="M198 178 C226 200 232 226 260 234"/>
  <path class="line" d="M430 128 C466 128 469 178 505 178"/>
  <path class="muted-line" d="M430 234 C466 234 469 178 505 178"/>
  <path class="line" d="M695 178 C730 178 745 178 780 178"/>
  <path class="muted-line" d="M970 166 C1000 146 1004 122 1032 122"/>
  <path class="muted-line" d="M970 190 C1000 198 1004 222 1032 222"/>
  <path class="muted-line" d="M970 212 C1002 244 1004 322 1032 322"/>

  <rect class="tag" x="706" y="150" width="62" height="24" rx="12"/>
  <text class="tag-text" x="737" y="166" text-anchor="middle">SSH -R</text>
</svg>
