<svg xmlns="http://www.w3.org/2000/svg" width="1280" height="760" viewBox="0 0 1280 760" role="img" aria-labelledby="title desc">
  <title id="title">Panel overview screenshot</title>
  <desc id="desc">Sanitized demo screenshot of the overview page showing Java server state, tunnel state, player count, latency and quick actions.</desc>
  <defs>
    <linearGradient id="bg" x1="0" y1="0" x2="1" y2="1">
      <stop offset="0" stop-color="#f9fbff"/>
      <stop offset="1" stop-color="#eaf2f8"/>
    </linearGradient>
    <linearGradient id="glass" x1="0" y1="0" x2="1" y2="1">
      <stop offset="0" stop-color="#ffffff" stop-opacity=".88"/>
      <stop offset="1" stop-color="#ffffff" stop-opacity=".46"/>
    </linearGradient>
    <filter id="shadow" x="-20%" y="-20%" width="140%" height="150%">
      <feDropShadow dx="0" dy="24" stdDeviation="24" flood-color="#0f172a" flood-opacity=".12"/>
    </filter>
    <style>
      .bg { fill: url(#bg); }
      .grid { stroke: #0f172a; stroke-opacity: .045; }
      .bar { fill: rgba(255,255,255,.74); }
      .card { fill: url(#glass); stroke: rgba(255,255,255,.84); stroke-width: 1.2; filter: url(#shadow); }
      .soft { fill: rgba(255,255,255,.56); stroke: rgba(15,23,42,.08); }
      .ink { fill: #0a0d14; font-family: -apple-system, BlinkMacSystemFont, "Segoe UI", sans-serif; }
      .muted { fill: #667085; font-family: -apple-system, BlinkMacSystemFont, "Segoe UI", sans-serif; }
      .small { font-size: 16px; }
      .tiny { font-size: 13px; }
      .h1 { font-size: 48px; font-weight: 800; }
      .h2 { font-size: 26px; font-weight: 800; }
      .label { font-size: 14px; font-weight: 750; }
      .value { font-size: 30px; font-weight: 850; }
      .teal { fill: #009f8f; }
      .blue { fill: #0a66ff; }
      .orange { fill: #e2552d; }
      .line { stroke: #d0d7de; stroke-width: 10; stroke-linecap: round; }
      .fill-blue { stroke: #0a66ff; stroke-width: 10; stroke-linecap: round; }
      .fill-teal { stroke: #009f8f; stroke-width: 10; stroke-linecap: round; }
      .btn { fill: rgba(255,255,255,.82); stroke: rgba(15,23,42,.10); }
    </style>
  </defs>
  <rect class="bg" width="1280" height="760" rx="26"/>
  <g>
    <path class="grid" d="M0 90H1280M0 150H1280M0 210H1280M0 270H1280M0 330H1280M0 390H1280M0 450H1280M0 510H1280M0 570H1280M0 630H1280M0 690H1280"/>
    <path class="grid" d="M90 0V760M150 0V760M210 0V760M270 0V760M330 0V760M390 0V760M450 0V760M510 0V760M570 0V760M630 0V760M690 0V760M750 0V760M810 0V760M870 0V760M930 0V760M990 0V760M1050 0V760M1110 0V760M1170 0V760"/>
  </g>
  <rect class="bar" x="0" y="0" width="1280" height="78"/>
  <text class="ink h2" x="42" y="49">UN Minecraft JE Gateway</text>
  <text class="muted small" x="365" y="49">Mac mini panel · demo data</text>
  <text class="muted small" x="1080" y="49">unmcserver.com</text>

  <g transform="translate(190 108)">
    <rect class="soft" x="0" y="0" width="900" height="64" rx="28"/>
    <rect class="soft" x="14" y="10" width="154" height="44" rx="18"/>
    <text class="ink label" x="72" y="38">Refresh</text>
    <rect class="soft" x="184" y="10" width="190" height="44" rx="18"/>
    <text class="blue label" x="244" y="38">Overview</text>
    <text class="ink label" x="422" y="38">Players</text>
    <text class="ink label" x="610" y="38">Terminal</text>
    <text class="ink label" x="790" y="38">Settings</text>
  </g>

  <g transform="translate(120 205)">
    <rect class="card" width="1040" height="250" rx="28"/>
    <text class="teal label" x="38" y="54">UN Java server · Mac mini</text>
    <text class="ink h1" x="38" y="112">Java server is running</text>
    <text class="muted small" x="40" y="142">Primary entry available · regional relay optional · demo.example.com</text>
    <g transform="translate(38 176)">
      <rect class="soft" width="180" height="52" rx="18"/>
      <circle cx="24" cy="26" r="8" fill="#009f8f"/>
      <text class="ink label" x="48" y="24">JE</text>
      <text class="ink label" x="48" y="42">Running</text>
    </g>
    <g transform="translate(240 176)">
      <rect class="soft" width="180" height="52" rx="18"/>
      <circle cx="24" cy="26" r="8" fill="#009f8f"/>
      <text class="ink label" x="48" y="24">Tunnel</text>
      <text class="ink label" x="48" y="42">Connected</text>
    </g>
    <g transform="translate(442 176)">
      <rect class="soft" width="180" height="52" rx="18"/>
      <circle cx="24" cy="26" r="8" fill="#0a66ff"/>
      <text class="ink label" x="48" y="24">Players</text>
      <text class="ink label" x="48" y="42">3 / 20</text>
    </g>
    <g transform="translate(644 176)">
      <rect class="soft" width="180" height="52" rx="18"/>
      <circle cx="24" cy="26" r="8" fill="#0a66ff"/>
      <text class="ink label" x="48" y="24">Primary</text>
      <text class="ink label" x="48" y="42">28 ms</text>
    </g>
    <g transform="translate(846 176)">
      <rect class="soft" width="156" height="52" rx="18"/>
      <circle cx="24" cy="26" r="8" fill="#e2552d"/>
      <text class="ink label" x="48" y="24">Regional</text>
      <text class="ink label" x="48" y="42">91 ms</text>
    </g>
  </g>

  <g transform="translate(120 485)">
    <rect class="card" width="500" height="190" rx="24"/>
    <text class="ink h2" x="30" y="48">Machine load</text>
    <text class="muted small" x="30" y="78">Mac mini · current sample</text>
    <text class="ink value" x="30" y="128">18.4%</text>
    <text class="muted tiny" x="30" y="152">Java CPU</text>
    <line class="line" x1="210" y1="116" x2="450" y2="116"/>
    <line class="fill-blue" x1="210" y1="116" x2="286" y2="116"/>
    <text class="ink value" x="30" y="184">1.2 GB</text>
    <line class="line" x1="210" y1="172" x2="450" y2="172"/>
    <line class="fill-teal" x1="210" y1="172" x2="318" y2="172"/>
  </g>
  <g transform="translate(660 485)">
    <rect class="card" width="500" height="190" rx="24"/>
    <text class="ink h2" x="30" y="48">Quick actions</text>
    <rect class="btn" x="30" y="82" width="190" height="44" rx="14"/>
    <text class="ink label" x="84" y="110">Save world</text>
    <rect class="btn" x="242" y="82" width="190" height="44" rx="14"/>
    <text class="ink label" x="298" y="110">Online list</text>
    <rect class="btn" x="30" y="140" width="190" height="44" rx="14"/>
    <text class="ink label" x="86" y="168">Restart JE</text>
    <rect class="btn" x="242" y="140" width="190" height="44" rx="14"/>
    <text class="ink label" x="298" y="168">Restart tunnel</text>
  </g>
</svg>
